<svg xmlns="http://www.w3.org/2000/svg" xmlns:xlink="http://www.w3.org/1999/xlink" width="378" zoomAndPan="magnify" viewBox="0 0 283.5 90.749999" height="121" preserveAspectRatio="xMidYMid meet" version="1.0"><defs><g/><clipPath id="dc7eeffc98"><path d="M 7.929688 13.316406 L 91.699219 13.316406 L 91.699219 76.890625 L 7.929688 76.890625 Z M 7.929688 13.316406 " clip-rule="nonzero"/></clipPath><clipPath id="8c72cae74f"><path d="M 7.929688 13.316406 L 91.699219 13.316406 L 91.699219 76.890625 L 7.929688 76.890625 Z M 7.929688 13.316406 " clip-rule="nonzero"/></clipPath><clipPath id="8922a0615c"><path d="M 30 14 L 82 14 L 82 76.890625 L 30 76.890625 Z M 30 14 " clip-rule="nonzero"/></clipPath></defs><path fill="#ff3131" d="M 9.003906 42.390625 L 30.894531 75.578125 C 37.953125 65.695312 54.195312 59.339844 63.375 61.457031 C 74.671875 53.691406 87.382812 55.101562 90.914062 57.925781 L 65.492188 24.738281 C 65.492188 24.738281 47.839844 19.796875 40.777344 30.386719 C 28.070312 24.738281 12.535156 33.917969 9.003906 42.390625 Z M 9.003906 42.390625 " fill-opacity="1" fill-rule="evenodd"/><g clip-path="url(#dc7eeffc98)"><path stroke-linecap="butt" transform="matrix(0.346849, 0, 0, 0.346849, -28.775924, -174.330354)" fill="none" stroke-linejoin="miter" d="M 108.922886 624.827433 L 172.035664 720.510188 C 192.386269 692.017089 239.214058 673.693661 265.67998 679.797716 C 298.249957 657.408672 334.896813 661.474288 345.077746 669.616783 L 271.784035 573.934027 C 271.784035 573.934027 220.89063 559.687478 200.528763 590.219016 C 163.893169 573.934027 119.103819 600.39995 108.922886 624.827433 Z M 108.922886 624.827433 " stroke="#000000" stroke-width="5" stroke-opacity="1" stroke-miterlimit="4"/></g><path fill="#ffffff" d="M 11.707031 38.015625 L 30.773438 66.964844 C 38.542969 52.84375 54.078125 46.488281 61.84375 55.667969 C 73.847656 38.71875 87.972656 55.667969 89.382812 55.667969 L 63.960938 21.066406 C 63.960938 21.066406 47.015625 13.300781 39.953125 23.890625 C 32.890625 18.242188 15.945312 25.304688 11.707031 38.015625 Z M 11.707031 38.015625 " fill-opacity="1" fill-rule="evenodd"/><g clip-path="url(#8c72cae74f)"><path stroke-linecap="butt" transform="matrix(0.346849, 0, 0, 0.346849, -28.775924, -174.330354)" fill="none" stroke-linejoin="miter" d="M 116.716255 612.213887 L 171.686539 695.677269 C 194.086845 654.964798 238.876195 636.64137 261.265239 663.107292 C 295.873655 614.241064 336.597389 663.107292 340.663005 663.107292 L 267.369294 563.347658 C 267.369294 563.347658 218.514328 540.958615 198.152461 571.490153 C 177.790594 555.205164 128.935628 575.567031 116.716255 612.213887 Z M 116.716255 612.213887 " stroke="#000000" stroke-width="5" stroke-opacity="1" stroke-miterlimit="4"/></g><g clip-path="url(#8922a0615c)"><path stroke-linecap="butt" transform="matrix(0.346849, 0, 0, 0.346849, -28.775924, -174.330354)" fill="none" stroke-linejoin="miter" d="M 199.515174 571.895588 L 262.61669 657.408672 C 270.770447 669.616783 254.474196 692.017089 289.082612 706.263638 " stroke="#000000" stroke-width="5" stroke-opacity="1" stroke-miterlimit="4"/></g><g fill="#ff3131" fill-opacity="1"><g transform="translate(91.715007, 54.578667)"><g><path d="M 8.21875 0.265625 C 6.789062 0.265625 5.410156 0.0625 4.078125 -0.34375 C 2.753906 -0.75 1.703125 -1.285156 0.921875 -1.953125 L 2.109375 -4.625 C 2.867188 -4.019531 3.796875 -3.53125 4.890625 -3.15625 C 5.992188 -2.78125 7.101562 -2.59375 8.21875 -2.59375 C 9.582031 -2.59375 10.601562 -2.8125 11.28125 -3.25 C 11.96875 -3.6875 12.3125 -4.265625 12.3125 -4.984375 C 12.3125 -5.515625 12.117188 -5.953125 11.734375 -6.296875 C 11.359375 -6.640625 10.878906 -6.90625 10.296875 -7.09375 C 9.710938 -7.289062 8.921875 -7.515625 7.921875 -7.765625 C 6.515625 -8.097656 5.375 -8.429688 4.5 -8.765625 C 3.625 -9.097656 2.875 -9.617188 2.25 -10.328125 C 1.632812 -11.046875 1.328125 -12.015625 1.328125 -13.234375 C 1.328125 -14.253906 1.601562 -15.179688 2.15625 -16.015625 C 2.707031 -16.847656 3.539062 -17.507812 4.65625 -18 C 5.78125 -18.5 7.148438 -18.75 8.765625 -18.75 C 9.890625 -18.75 11 -18.609375 12.09375 -18.328125 C 13.1875 -18.046875 14.128906 -17.640625 14.921875 -17.109375 L 13.84375 -14.4375 C 13.03125 -14.914062 12.179688 -15.273438 11.296875 -15.515625 C 10.421875 -15.765625 9.566406 -15.890625 8.734375 -15.890625 C 7.378906 -15.890625 6.375 -15.660156 5.71875 -15.203125 C 5.0625 -14.753906 4.734375 -14.148438 4.734375 -13.390625 C 4.734375 -12.859375 4.921875 -12.425781 5.296875 -12.09375 C 5.671875 -11.757812 6.148438 -11.492188 6.734375 -11.296875 C 7.316406 -11.109375 8.109375 -10.890625 9.109375 -10.640625 C 10.484375 -10.328125 11.609375 -10 12.484375 -9.65625 C 13.367188 -9.3125 14.125 -8.785156 14.75 -8.078125 C 15.375 -7.378906 15.6875 -6.429688 15.6875 -5.234375 C 15.6875 -4.210938 15.40625 -3.285156 14.84375 -2.453125 C 14.289062 -1.628906 13.453125 -0.96875 12.328125 -0.46875 C 11.203125 0.0195312 9.832031 0.265625 8.21875 0.265625 Z M 8.21875 0.265625 "/></g></g></g><g fill="#ff3131" fill-opacity="1"><g transform="translate(108.32066, 54.578667)"><g><path d="M 19.96875 -14.265625 C 21.738281 -14.265625 23.144531 -13.75 24.1875 -12.71875 C 25.226562 -11.6875 25.75 -10.140625 25.75 -8.078125 L 25.75 0 L 22.453125 0 L 22.453125 -7.65625 C 22.453125 -8.882812 22.175781 -9.8125 21.625 -10.4375 C 21.082031 -11.0625 20.300781 -11.375 19.28125 -11.375 C 18.164062 -11.375 17.273438 -11.007812 16.609375 -10.28125 C 15.941406 -9.550781 15.609375 -8.507812 15.609375 -7.15625 L 15.609375 0 L 12.3125 0 L 12.3125 -7.65625 C 12.3125 -8.882812 12.035156 -9.8125 11.484375 -10.4375 C 10.941406 -11.0625 10.160156 -11.375 9.140625 -11.375 C 8.015625 -11.375 7.117188 -11.015625 6.453125 -10.296875 C 5.796875 -9.578125 5.46875 -8.53125 5.46875 -7.15625 L 5.46875 0 L 2.171875 0 L 2.171875 -14.09375 L 5.3125 -14.09375 L 5.3125 -12.3125 C 5.832031 -12.9375 6.488281 -13.414062 7.28125 -13.75 C 8.070312 -14.09375 8.953125 -14.265625 9.921875 -14.265625 C 10.984375 -14.265625 11.921875 -14.066406 12.734375 -13.671875 C 13.554688 -13.273438 14.207031 -12.6875 14.6875 -11.90625 C 15.257812 -12.644531 16.003906 -13.222656 16.921875 -13.640625 C 17.835938 -14.054688 18.851562 -14.265625 19.96875 -14.265625 Z M 19.96875 -14.265625 "/></g></g></g><g fill="#ff3131" fill-opacity="1"><g transform="translate(136.119943, 54.578667)"><g><path d="M 7.546875 -14.265625 C 9.628906 -14.265625 11.21875 -13.765625 12.3125 -12.765625 C 13.414062 -11.773438 13.96875 -10.273438 13.96875 -8.265625 L 13.96875 0 L 10.859375 0 L 10.859375 -1.71875 C 10.453125 -1.101562 9.875 -0.628906 9.125 -0.296875 C 8.375 0.0234375 7.472656 0.1875 6.421875 0.1875 C 5.359375 0.1875 4.429688 0.0078125 3.640625 -0.34375 C 2.847656 -0.707031 2.234375 -1.210938 1.796875 -1.859375 C 1.367188 -2.503906 1.15625 -3.234375 1.15625 -4.046875 C 1.15625 -5.304688 1.625 -6.316406 2.5625 -7.078125 C 3.507812 -7.847656 5 -8.234375 7.03125 -8.234375 L 10.671875 -8.234375 L 10.671875 -8.453125 C 10.671875 -9.429688 10.375 -10.1875 9.78125 -10.71875 C 9.195312 -11.25 8.320312 -11.515625 7.15625 -11.515625 C 6.363281 -11.515625 5.582031 -11.390625 4.8125 -11.140625 C 4.050781 -10.898438 3.40625 -10.554688 2.875 -10.109375 L 1.578125 -12.515625 C 2.316406 -13.078125 3.207031 -13.507812 4.25 -13.8125 C 5.289062 -14.113281 6.390625 -14.265625 7.546875 -14.265625 Z M 7.109375 -2.21875 C 7.929688 -2.21875 8.660156 -2.40625 9.296875 -2.78125 C 9.941406 -3.164062 10.398438 -3.707031 10.671875 -4.40625 L 10.671875 -6.046875 L 7.265625 -6.046875 C 5.359375 -6.046875 4.40625 -5.421875 4.40625 -4.171875 C 4.40625 -3.578125 4.640625 -3.101562 5.109375 -2.75 C 5.585938 -2.394531 6.253906 -2.21875 7.109375 -2.21875 Z M 7.109375 -2.21875 "/></g></g></g><g fill="#ff3131" fill-opacity="1"><g transform="translate(152.144789, 54.578667)"><g><path d="M 5.3125 -12.046875 C 6.257812 -13.523438 7.929688 -14.265625 10.328125 -14.265625 L 10.328125 -11.109375 C 10.046875 -11.171875 9.789062 -11.203125 9.5625 -11.203125 C 8.269531 -11.203125 7.265625 -10.828125 6.546875 -10.078125 C 5.828125 -9.328125 5.46875 -8.25 5.46875 -6.84375 L 5.46875 0 L 2.171875 0 L 2.171875 -14.09375 L 5.3125 -14.09375 Z M 5.3125 -12.046875 "/></g></g></g><g fill="#ff3131" fill-opacity="1"><g transform="translate(163.232821, 54.578667)"><g><path d="M 10.640625 -0.765625 C 10.253906 -0.453125 9.78125 -0.210938 9.21875 -0.046875 C 8.664062 0.109375 8.082031 0.1875 7.46875 0.1875 C 5.925781 0.1875 4.726562 -0.21875 3.875 -1.03125 C 3.03125 -1.84375 2.609375 -3.019531 2.609375 -4.5625 L 2.609375 -11.359375 L 0.296875 -11.359375 L 0.296875 -14 L 2.609375 -14 L 2.609375 -17.21875 L 5.921875 -17.21875 L 5.921875 -14 L 9.6875 -14 L 9.6875 -11.359375 L 5.921875 -11.359375 L 5.921875 -4.640625 C 5.921875 -3.960938 6.085938 -3.441406 6.421875 -3.078125 C 6.753906 -2.710938 7.238281 -2.53125 7.875 -2.53125 C 8.613281 -2.53125 9.226562 -2.722656 9.71875 -3.109375 Z M 10.640625 -0.765625 "/></g></g></g><g fill="#ff3131" fill-opacity="1"><g transform="translate(174.426459, 54.578667)"><g/></g></g><g fill="#ff3131" fill-opacity="1"><g transform="translate(181.71288, 54.578667)"><g><path d="M 2.484375 -18.484375 L 5.921875 -18.484375 L 5.921875 -2.90625 L 15.578125 -2.90625 L 15.578125 0 L 2.484375 0 Z M 2.484375 -18.484375 "/></g></g></g><g fill="#ff3131" fill-opacity="1"><g transform="translate(197.526529, 54.578667)"><g><path d="M 2.171875 -14.09375 L 5.46875 -14.09375 L 5.46875 0 L 2.171875 0 Z M 3.828125 -16.421875 C 3.234375 -16.421875 2.734375 -16.609375 2.328125 -16.984375 C 1.921875 -17.367188 1.71875 -17.84375 1.71875 -18.40625 C 1.71875 -18.96875 1.921875 -19.4375 2.328125 -19.8125 C 2.734375 -20.195312 3.234375 -20.390625 3.828125 -20.390625 C 4.421875 -20.390625 4.921875 -20.207031 5.328125 -19.84375 C 5.734375 -19.476562 5.9375 -19.023438 5.9375 -18.484375 C 5.9375 -17.898438 5.738281 -17.410156 5.34375 -17.015625 C 4.945312 -16.617188 4.441406 -16.421875 3.828125 -16.421875 Z M 3.828125 -16.421875 "/></g></g></g><g fill="#ff3131" fill-opacity="1"><g transform="translate(205.156156, 54.578667)"><g><path d="M 9.984375 -14.265625 C 11.359375 -14.265625 12.585938 -13.960938 13.671875 -13.359375 C 14.753906 -12.765625 15.601562 -11.921875 16.21875 -10.828125 C 16.832031 -9.734375 17.140625 -8.472656 17.140625 -7.046875 C 17.140625 -5.617188 16.832031 -4.351562 16.21875 -3.25 C 15.601562 -2.15625 14.753906 -1.304688 13.671875 -0.703125 C 12.585938 -0.109375 11.359375 0.1875 9.984375 0.1875 C 9.015625 0.1875 8.128906 0.0195312 7.328125 -0.3125 C 6.523438 -0.644531 5.851562 -1.148438 5.3125 -1.828125 L 5.3125 0 L 2.171875 0 L 2.171875 -19.59375 L 5.46875 -19.59375 L 5.46875 -12.390625 C 6.03125 -13.003906 6.691406 -13.46875 7.453125 -13.78125 C 8.222656 -14.101562 9.066406 -14.265625 9.984375 -14.265625 Z M 9.609375 -2.640625 C 10.828125 -2.640625 11.828125 -3.039062 12.609375 -3.84375 C 13.390625 -4.65625 13.78125 -5.722656 13.78125 -7.046875 C 13.78125 -8.367188 13.390625 -9.429688 12.609375 -10.234375 C 11.828125 -11.046875 10.828125 -11.453125 9.609375 -11.453125 C 8.816406 -11.453125 8.101562 -11.269531 7.46875 -10.90625 C 6.832031 -10.550781 6.328125 -10.039062 5.953125 -9.375 C 5.585938 -8.707031 5.40625 -7.929688 5.40625 -7.046875 C 5.40625 -6.171875 5.585938 -5.394531 5.953125 -4.71875 C 6.328125 -4.050781 6.832031 -3.535156 7.46875 -3.171875 C 8.101562 -2.816406 8.816406 -2.640625 9.609375 -2.640625 Z M 9.609375 -2.640625 "/></g></g></g><g fill="#ff3131" fill-opacity="1"><g transform="translate(223.266613, 54.578667)"><g><path d="M 5.3125 -12.046875 C 6.257812 -13.523438 7.929688 -14.265625 10.328125 -14.265625 L 10.328125 -11.109375 C 10.046875 -11.171875 9.789062 -11.203125 9.5625 -11.203125 C 8.269531 -11.203125 7.265625 -10.828125 6.546875 -10.078125 C 5.828125 -9.328125 5.46875 -8.25 5.46875 -6.84375 L 5.46875 0 L 2.171875 0 L 2.171875 -14.09375 L 5.3125 -14.09375 Z M 5.3125 -12.046875 "/></g></g></g><g fill="#ff3131" fill-opacity="1"><g transform="translate(234.354645, 54.578667)"><g><path d="M 7.546875 -14.265625 C 9.628906 -14.265625 11.21875 -13.765625 12.3125 -12.765625 C 13.414062 -11.773438 13.96875 -10.273438 13.96875 -8.265625 L 13.96875 0 L 10.859375 0 L 10.859375 -1.71875 C 10.453125 -1.101562 9.875 -0.628906 9.125 -0.296875 C 8.375 0.0234375 7.472656 0.1875 6.421875 0.1875 C 5.359375 0.1875 4.429688 0.0078125 3.640625 -0.34375 C 2.847656 -0.707031 2.234375 -1.210938 1.796875 -1.859375 C 1.367188 -2.503906 1.15625 -3.234375 1.15625 -4.046875 C 1.15625 -5.304688 1.625 -6.316406 2.5625 -7.078125 C 3.507812 -7.847656 5 -8.234375 7.03125 -8.234375 L 10.671875 -8.234375 L 10.671875 -8.453125 C 10.671875 -9.429688 10.375 -10.1875 9.78125 -10.71875 C 9.195312 -11.25 8.320312 -11.515625 7.15625 -11.515625 C 6.363281 -11.515625 5.582031 -11.390625 4.8125 -11.140625 C 4.050781 -10.898438 3.40625 -10.554688 2.875 -10.109375 L 1.578125 -12.515625 C 2.316406 -13.078125 3.207031 -13.507812 4.25 -13.8125 C 5.289062 -14.113281 6.390625 -14.265625 7.546875 -14.265625 Z M 7.109375 -2.21875 C 7.929688 -2.21875 8.660156 -2.40625 9.296875 -2.78125 C 9.941406 -3.164062 10.398438 -3.707031 10.671875 -4.40625 L 10.671875 -6.046875 L 7.265625 -6.046875 C 5.359375 -6.046875 4.40625 -5.421875 4.40625 -4.171875 C 4.40625 -3.578125 4.640625 -3.101562 5.109375 -2.75 C 5.585938 -2.394531 6.253906 -2.21875 7.109375 -2.21875 Z M 7.109375 -2.21875 "/></g></g></g><g fill="#ff3131" fill-opacity="1"><g transform="translate(250.379491, 54.578667)"><g><path d="M 5.3125 -12.046875 C 6.257812 -13.523438 7.929688 -14.265625 10.328125 -14.265625 L 10.328125 -11.109375 C 10.046875 -11.171875 9.789062 -11.203125 9.5625 -11.203125 C 8.269531 -11.203125 7.265625 -10.828125 6.546875 -10.078125 C 5.828125 -9.328125 5.46875 -8.25 5.46875 -6.84375 L 5.46875 0 L 2.171875 0 L 2.171875 -14.09375 L 5.3125 -14.09375 Z M 5.3125 -12.046875 "/></g></g></g><g fill="#ff3131" fill-opacity="1"><g transform="translate(261.467523, 54.578667)"><g><path d="M 15.375 -14.09375 L 8.765625 1.140625 C 8.148438 2.671875 7.398438 3.75 6.515625 4.375 C 5.640625 5 4.578125 5.3125 3.328125 5.3125 C 2.617188 5.3125 1.921875 5.195312 1.234375 4.96875 C 0.554688 4.738281 -0.00390625 4.421875 -0.453125 4.015625 L 0.875 1.578125 C 1.1875 1.878906 1.554688 2.117188 1.984375 2.296875 C 2.421875 2.472656 2.859375 2.5625 3.296875 2.5625 C 3.878906 2.5625 4.359375 2.410156 4.734375 2.109375 C 5.117188 1.804688 5.46875 1.304688 5.78125 0.609375 L 6.015625 0.046875 L -0.125 -14.09375 L 3.296875 -14.09375 L 7.734375 -3.671875 L 12.203125 -14.09375 Z M 15.375 -14.09375 "/></g></g></g></svg>