<svg xmlns="http://www.w3.org/2000/svg" xmlns:xlink="http://www.w3.org/1999/xlink" width="378" zoomAndPan="magnify" viewBox="0 0 283.5 90.749999" height="121" preserveAspectRatio="xMidYMid meet" version="1.0"><defs><g/><clipPath id="9db6d38b95"><path d="M 31.632812 3.386719 L 141.578125 3.386719 L 141.578125 87.15625 L 31.632812 87.15625 Z M 31.632812 3.386719 " clip-rule="nonzero"/></clipPath><clipPath id="28575deeff"><path d="M 31.632812 3.386719 L 141.578125 3.386719 L 141.578125 87 L 31.632812 87 Z M 31.632812 3.386719 " clip-rule="nonzero"/></clipPath><clipPath id="10d14c5f63"><path d="M 61 4 L 128 4 L 128 87.15625 L 61 87.15625 Z M 61 4 " clip-rule="nonzero"/></clipPath></defs><path fill="#ff3131" d="M 33.039062 41.507812 L 61.738281 85.023438 C 70.996094 72.0625 92.289062 63.730469 104.324219 66.507812 C 119.140625 56.324219 135.804688 58.171875 140.433594 61.878906 L 107.101562 18.363281 C 107.101562 18.363281 83.957031 11.882812 74.699219 25.769531 C 58.035156 18.363281 37.667969 30.398438 33.039062 41.507812 Z M 33.039062 41.507812 " fill-opacity="1" fill-rule="evenodd"/><g clip-path="url(#9db6d38b95)"><path stroke-linecap="butt" transform="matrix(0.454759, 0, 0, 0.454759, -16.495141, -242.638239)" fill="none" stroke-linejoin="miter" d="M 108.92397 624.827172 L 172.032543 720.516501 C 192.390147 692.015855 239.212636 673.694012 265.677521 679.801293 C 298.258277 657.407928 334.901965 661.47086 345.080767 669.622491 L 271.784802 573.933162 C 271.784802 573.933162 220.890792 559.68284 200.533188 590.219246 C 163.889501 573.933162 119.102772 600.398048 108.92397 624.827172 Z M 108.92397 624.827172 " stroke="#000000" stroke-width="5" stroke-opacity="1" stroke-miterlimit="4"/></g><path fill="#ffffff" d="M 36.585938 35.769531 L 61.582031 73.730469 C 71.765625 55.210938 92.132812 46.878906 102.316406 58.914062 C 118.058594 36.695312 136.574219 58.914062 138.425781 58.914062 L 105.09375 13.550781 C 105.09375 13.550781 82.875 3.367188 73.617188 17.253906 C 64.359375 9.847656 42.140625 19.105469 36.585938 35.769531 Z M 36.585938 35.769531 " fill-opacity="1" fill-rule="evenodd"/><g clip-path="url(#28575deeff)"><path stroke-linecap="butt" transform="matrix(0.454759, 0, 0, 0.454759, -16.495141, -242.638239)" fill="none" stroke-linejoin="miter" d="M 116.723424 612.208894 L 171.688955 695.68366 C 194.082319 654.959862 238.869048 636.638019 261.262412 663.102904 C 295.878929 614.244654 336.594137 663.102904 340.665658 663.102904 L 267.369693 563.350644 C 267.369693 563.350644 218.511444 540.95728 198.15384 571.493686 C 177.796236 555.207603 128.937986 575.565207 116.723424 612.208894 Z M 116.723424 612.208894 " stroke="#000000" stroke-width="5" stroke-opacity="1" stroke-miterlimit="4"/></g><g clip-path="url(#10d14c5f63)"><path stroke-linecap="butt" transform="matrix(0.454759, 0, 0, 0.454759, -16.495141, -242.638239)" fill="none" stroke-linejoin="miter" d="M 199.511013 571.897402 L 262.619586 657.407928 C 270.762627 669.622491 254.476544 692.015855 289.084471 706.266178 " stroke="#000000" stroke-width="5" stroke-opacity="1" stroke-miterlimit="4"/></g><g fill="#ff3131" fill-opacity="1"><g transform="translate(141.48302, 37.890841)"><g><path d="M 9.375 0.296875 C 7.75 0.296875 6.175781 0.0664062 4.65625 -0.390625 C 3.132812 -0.847656 1.9375 -1.460938 1.0625 -2.234375 L 2.40625 -5.28125 C 3.269531 -4.59375 4.332031 -4.03125 5.59375 -3.59375 C 6.851562 -3.164062 8.113281 -2.953125 9.375 -2.953125 C 10.945312 -2.953125 12.117188 -3.203125 12.890625 -3.703125 C 13.660156 -4.210938 14.046875 -4.878906 14.046875 -5.703125 C 14.046875 -6.304688 13.828125 -6.800781 13.390625 -7.1875 C 12.960938 -7.582031 12.414062 -7.890625 11.75 -8.109375 C 11.09375 -8.328125 10.191406 -8.578125 9.046875 -8.859375 C 7.441406 -9.242188 6.140625 -9.625 5.140625 -10 C 4.148438 -10.382812 3.296875 -10.984375 2.578125 -11.796875 C 1.859375 -12.617188 1.5 -13.722656 1.5 -15.109375 C 1.5 -16.273438 1.816406 -17.332031 2.453125 -18.28125 C 3.085938 -19.238281 4.039062 -20 5.3125 -20.5625 C 6.59375 -21.125 8.160156 -21.40625 10.015625 -21.40625 C 11.296875 -21.40625 12.5625 -21.242188 13.8125 -20.921875 C 15.0625 -20.609375 16.132812 -20.148438 17.03125 -19.546875 L 15.796875 -16.5 C 14.878906 -17.039062 13.914062 -17.453125 12.90625 -17.734375 C 11.90625 -18.015625 10.929688 -18.15625 9.984375 -18.15625 C 8.429688 -18.15625 7.273438 -17.890625 6.515625 -17.359375 C 5.765625 -16.835938 5.390625 -16.148438 5.390625 -15.296875 C 5.390625 -14.691406 5.601562 -14.195312 6.03125 -13.8125 C 6.46875 -13.425781 7.019531 -13.125 7.6875 -12.90625 C 8.351562 -12.6875 9.257812 -12.4375 10.40625 -12.15625 C 11.96875 -11.789062 13.25 -11.410156 14.25 -11.015625 C 15.257812 -10.628906 16.117188 -10.03125 16.828125 -9.21875 C 17.546875 -8.414062 17.90625 -7.332031 17.90625 -5.96875 C 17.90625 -4.800781 17.585938 -3.742188 16.953125 -2.796875 C 16.328125 -1.859375 15.367188 -1.109375 14.078125 -0.546875 C 12.796875 0.015625 11.226562 0.296875 9.375 0.296875 Z M 9.375 0.296875 "/></g></g></g><g fill="#ff3131" fill-opacity="1"><g transform="translate(160.450955, 37.890841)"><g><path d="M 22.796875 -16.28125 C 24.828125 -16.28125 26.4375 -15.691406 27.625 -14.515625 C 28.8125 -13.335938 29.40625 -11.578125 29.40625 -9.234375 L 29.40625 0 L 25.625 0 L 25.625 -8.75 C 25.625 -10.15625 25.3125 -11.210938 24.6875 -11.921875 C 24.070312 -12.640625 23.179688 -13 22.015625 -13 C 20.742188 -13 19.726562 -12.582031 18.96875 -11.75 C 18.207031 -10.914062 17.828125 -9.722656 17.828125 -8.171875 L 17.828125 0 L 14.046875 0 L 14.046875 -8.75 C 14.046875 -10.15625 13.734375 -11.210938 13.109375 -11.921875 C 12.492188 -12.640625 11.601562 -13 10.4375 -13 C 9.144531 -13 8.125 -12.585938 7.375 -11.765625 C 6.625 -10.941406 6.25 -9.742188 6.25 -8.171875 L 6.25 0 L 2.46875 0 L 2.46875 -16.109375 L 6.0625 -16.109375 L 6.0625 -14.046875 C 6.664062 -14.773438 7.421875 -15.328125 8.328125 -15.703125 C 9.234375 -16.085938 10.238281 -16.28125 11.34375 -16.28125 C 12.539062 -16.28125 13.609375 -16.050781 14.546875 -15.59375 C 15.484375 -15.144531 16.222656 -14.476562 16.765625 -13.59375 C 17.429688 -14.4375 18.285156 -15.09375 19.328125 -15.5625 C 20.367188 -16.039062 21.523438 -16.28125 22.796875 -16.28125 Z M 22.796875 -16.28125 "/></g></g></g><g fill="#ff3131" fill-opacity="1"><g transform="translate(192.204901, 37.890841)"><g><path d="M 8.625 -16.28125 C 11 -16.28125 12.8125 -15.710938 14.0625 -14.578125 C 15.320312 -13.441406 15.953125 -11.726562 15.953125 -9.4375 L 15.953125 0 L 12.390625 0 L 12.390625 -1.953125 C 11.929688 -1.253906 11.273438 -0.71875 10.421875 -0.34375 C 9.566406 0.03125 8.535156 0.21875 7.328125 0.21875 C 6.117188 0.21875 5.0625 0.0078125 4.15625 -0.40625 C 3.25 -0.820312 2.550781 -1.394531 2.0625 -2.125 C 1.570312 -2.863281 1.328125 -3.691406 1.328125 -4.609375 C 1.328125 -6.054688 1.863281 -7.21875 2.9375 -8.09375 C 4.007812 -8.96875 5.703125 -9.40625 8.015625 -9.40625 L 12.1875 -9.40625 L 12.1875 -9.65625 C 12.1875 -10.78125 11.847656 -11.640625 11.171875 -12.234375 C 10.492188 -12.835938 9.492188 -13.140625 8.171875 -13.140625 C 7.265625 -13.140625 6.375 -13 5.5 -12.71875 C 4.625 -12.4375 3.882812 -12.046875 3.28125 -11.546875 L 1.8125 -14.296875 C 2.65625 -14.941406 3.671875 -15.429688 4.859375 -15.765625 C 6.046875 -16.109375 7.300781 -16.28125 8.625 -16.28125 Z M 8.109375 -2.53125 C 9.054688 -2.53125 9.894531 -2.742188 10.625 -3.171875 C 11.363281 -3.609375 11.882812 -4.226562 12.1875 -5.03125 L 12.1875 -6.90625 L 8.296875 -6.90625 C 6.117188 -6.90625 5.03125 -6.191406 5.03125 -4.765625 C 5.03125 -4.078125 5.300781 -3.53125 5.84375 -3.125 C 6.394531 -2.726562 7.148438 -2.53125 8.109375 -2.53125 Z M 8.109375 -2.53125 "/></g></g></g><g fill="#ff3131" fill-opacity="1"><g transform="translate(210.509405, 37.890841)"><g><path d="M 6.0625 -13.75 C 7.144531 -15.4375 9.054688 -16.28125 11.796875 -16.28125 L 11.796875 -12.703125 C 11.472656 -12.753906 11.179688 -12.78125 10.921875 -12.78125 C 9.453125 -12.78125 8.304688 -12.351562 7.484375 -11.5 C 6.660156 -10.644531 6.25 -9.414062 6.25 -7.8125 L 6.25 0 L 2.46875 0 L 2.46875 -16.109375 L 6.0625 -16.109375 Z M 6.0625 -13.75 "/></g></g></g><g fill="#ff3131" fill-opacity="1"><g transform="translate(223.174795, 37.890841)"><g><path d="M 12.15625 -0.875 C 11.707031 -0.507812 11.164062 -0.234375 10.53125 -0.046875 C 9.90625 0.128906 9.238281 0.21875 8.53125 0.21875 C 6.757812 0.21875 5.390625 -0.242188 4.421875 -1.171875 C 3.460938 -2.097656 2.984375 -3.445312 2.984375 -5.21875 L 2.984375 -12.96875 L 0.328125 -12.96875 L 0.328125 -15.984375 L 2.984375 -15.984375 L 2.984375 -19.65625 L 6.75 -19.65625 L 6.75 -15.984375 L 11.0625 -15.984375 L 11.0625 -12.96875 L 6.75 -12.96875 L 6.75 -5.3125 C 6.75 -4.519531 6.941406 -3.914062 7.328125 -3.5 C 7.710938 -3.09375 8.265625 -2.890625 8.984375 -2.890625 C 9.828125 -2.890625 10.53125 -3.113281 11.09375 -3.5625 Z M 12.15625 -0.875 "/></g></g></g><g fill="#ff3131" fill-opacity="1"><g transform="translate(141.48302, 73.926416)"><g><path d="M 2.828125 -21.109375 L 6.75 -21.109375 L 6.75 -3.3125 L 17.796875 -3.3125 L 17.796875 0 L 2.828125 0 Z M 2.828125 -21.109375 "/></g></g></g><g fill="#ff3131" fill-opacity="1"><g transform="translate(159.546283, 73.926416)"><g><path d="M 2.46875 -16.109375 L 6.25 -16.109375 L 6.25 0 L 2.46875 0 Z M 4.375 -18.75 C 3.6875 -18.75 3.113281 -18.960938 2.65625 -19.390625 C 2.195312 -19.828125 1.96875 -20.367188 1.96875 -21.015625 C 1.96875 -21.660156 2.195312 -22.195312 2.65625 -22.625 C 3.113281 -23.0625 3.6875 -23.28125 4.375 -23.28125 C 5.0625 -23.28125 5.632812 -23.070312 6.09375 -22.65625 C 6.550781 -22.25 6.78125 -21.734375 6.78125 -21.109375 C 6.78125 -20.441406 6.554688 -19.878906 6.109375 -19.421875 C 5.660156 -18.972656 5.082031 -18.75 4.375 -18.75 Z M 4.375 -18.75 "/></g></g></g><g fill="#ff3131" fill-opacity="1"><g transform="translate(168.261284, 73.926416)"><g><path d="M 11.40625 -16.28125 C 12.96875 -16.28125 14.363281 -15.9375 15.59375 -15.25 C 16.832031 -14.570312 17.804688 -13.609375 18.515625 -12.359375 C 19.222656 -11.117188 19.578125 -9.679688 19.578125 -8.046875 C 19.578125 -6.421875 19.222656 -4.976562 18.515625 -3.71875 C 17.804688 -2.46875 16.832031 -1.5 15.59375 -0.8125 C 14.363281 -0.125 12.96875 0.21875 11.40625 0.21875 C 10.289062 0.21875 9.273438 0.0234375 8.359375 -0.359375 C 7.453125 -0.742188 6.6875 -1.316406 6.0625 -2.078125 L 6.0625 0 L 2.46875 0 L 2.46875 -22.375 L 6.25 -22.375 L 6.25 -14.140625 C 6.882812 -14.847656 7.640625 -15.378906 8.515625 -15.734375 C 9.390625 -16.097656 10.351562 -16.28125 11.40625 -16.28125 Z M 10.984375 -3.015625 C 12.367188 -3.015625 13.503906 -3.476562 14.390625 -4.40625 C 15.285156 -5.332031 15.734375 -6.546875 15.734375 -8.046875 C 15.734375 -9.554688 15.285156 -10.773438 14.390625 -11.703125 C 13.503906 -12.628906 12.367188 -13.09375 10.984375 -13.09375 C 10.078125 -13.09375 9.257812 -12.882812 8.53125 -12.46875 C 7.8125 -12.050781 7.238281 -11.460938 6.8125 -10.703125 C 6.394531 -9.941406 6.1875 -9.054688 6.1875 -8.046875 C 6.1875 -7.046875 6.394531 -6.160156 6.8125 -5.390625 C 7.238281 -4.628906 7.8125 -4.039062 8.53125 -3.625 C 9.257812 -3.21875 10.078125 -3.015625 10.984375 -3.015625 Z M 10.984375 -3.015625 "/></g></g></g><g fill="#ff3131" fill-opacity="1"><g transform="translate(188.948093, 73.926416)"><g><path d="M 6.0625 -13.75 C 7.144531 -15.4375 9.054688 -16.28125 11.796875 -16.28125 L 11.796875 -12.703125 C 11.472656 -12.753906 11.179688 -12.78125 10.921875 -12.78125 C 9.453125 -12.78125 8.304688 -12.351562 7.484375 -11.5 C 6.660156 -10.644531 6.25 -9.414062 6.25 -7.8125 L 6.25 0 L 2.46875 0 L 2.46875 -16.109375 L 6.0625 -16.109375 Z M 6.0625 -13.75 "/></g></g></g><g fill="#ff3131" fill-opacity="1"><g transform="translate(201.613483, 73.926416)"><g><path d="M 8.625 -16.28125 C 11 -16.28125 12.8125 -15.710938 14.0625 -14.578125 C 15.320312 -13.441406 15.953125 -11.726562 15.953125 -9.4375 L 15.953125 0 L 12.390625 0 L 12.390625 -1.953125 C 11.929688 -1.253906 11.273438 -0.71875 10.421875 -0.34375 C 9.566406 0.03125 8.535156 0.21875 7.328125 0.21875 C 6.117188 0.21875 5.0625 0.0078125 4.15625 -0.40625 C 3.25 -0.820312 2.550781 -1.394531 2.0625 -2.125 C 1.570312 -2.863281 1.328125 -3.691406 1.328125 -4.609375 C 1.328125 -6.054688 1.863281 -7.21875 2.9375 -8.09375 C 4.007812 -8.96875 5.703125 -9.40625 8.015625 -9.40625 L 12.1875 -9.40625 L 12.1875 -9.65625 C 12.1875 -10.78125 11.847656 -11.640625 11.171875 -12.234375 C 10.492188 -12.835938 9.492188 -13.140625 8.171875 -13.140625 C 7.265625 -13.140625 6.375 -13 5.5 -12.71875 C 4.625 -12.4375 3.882812 -12.046875 3.28125 -11.546875 L 1.8125 -14.296875 C 2.65625 -14.941406 3.671875 -15.429688 4.859375 -15.765625 C 6.046875 -16.109375 7.300781 -16.28125 8.625 -16.28125 Z M 8.109375 -2.53125 C 9.054688 -2.53125 9.894531 -2.742188 10.625 -3.171875 C 11.363281 -3.609375 11.882812 -4.226562 12.1875 -5.03125 L 12.1875 -6.90625 L 8.296875 -6.90625 C 6.117188 -6.90625 5.03125 -6.191406 5.03125 -4.765625 C 5.03125 -4.078125 5.300781 -3.53125 5.84375 -3.125 C 6.394531 -2.726562 7.148438 -2.53125 8.109375 -2.53125 Z M 8.109375 -2.53125 "/></g></g></g><g fill="#ff3131" fill-opacity="1"><g transform="translate(219.917987, 73.926416)"><g><path d="M 6.0625 -13.75 C 7.144531 -15.4375 9.054688 -16.28125 11.796875 -16.28125 L 11.796875 -12.703125 C 11.472656 -12.753906 11.179688 -12.78125 10.921875 -12.78125 C 9.453125 -12.78125 8.304688 -12.351562 7.484375 -11.5 C 6.660156 -10.644531 6.25 -9.414062 6.25 -7.8125 L 6.25 0 L 2.46875 0 L 2.46875 -16.109375 L 6.0625 -16.109375 Z M 6.0625 -13.75 "/></g></g></g><g fill="#ff3131" fill-opacity="1"><g transform="translate(232.583377, 73.926416)"><g><path d="M 17.546875 -16.109375 L 10.015625 1.296875 C 9.304688 3.046875 8.445312 4.273438 7.4375 4.984375 C 6.4375 5.703125 5.222656 6.0625 3.796875 6.0625 C 2.992188 6.0625 2.195312 5.929688 1.40625 5.671875 C 0.625 5.410156 -0.015625 5.046875 -0.515625 4.578125 L 1 1.8125 C 1.351562 2.15625 1.773438 2.425781 2.265625 2.625 C 2.765625 2.820312 3.265625 2.921875 3.765625 2.921875 C 4.429688 2.921875 4.976562 2.75 5.40625 2.40625 C 5.84375 2.070312 6.242188 1.5 6.609375 0.6875 L 6.875 0.0625 L -0.15625 -16.109375 L 3.765625 -16.109375 L 8.828125 -4.1875 L 13.9375 -16.109375 Z M 17.546875 -16.109375 "/></g></g></g></svg>